<svg xmlns="http://www.w3.org/2000/svg" viewBox="0 0 1920 1080"><path d="M41,1315L-113,1314L553,1342Z" fill="#ba8855" stroke="#ba8855" stroke-width="1.51"/><path d="M278,1317L41,1315L553,1342Z" fill="#b9854d" stroke="#b9854d" stroke-width="1.51"/><path d="M101,-239L392,-213L684,-232Z" fill="#ffeeb2" stroke="#ffeeb2" stroke-width="1.51"/><path d="M101,-239L684,-232L1035,-261Z" fill="#ffe39d" stroke="#ffe39d" stroke-width="1.51"/><path d="M1160,1314L553,1342L1375,1351Z" fill="#b15a14" stroke="#b15a14" stroke-width="1.51"/><path d="M1478,-192L1701,-171L1960,-212Z" fill="#e19e6b" stroke="#e19e6b" stroke-width="1.51"/><path d="M1795,1253L1505,1343L1961,1258Z" fill="#923306" stroke="#923306" stroke-width="1.51"/><path d="M1478,-192L1960,-212L2043,-234Z" fill="#d7996b" stroke="#d7996b" stroke-width="1.51"/><path d="M1035,-261L1478,-192L2043,-234Z" fill="#f2a872" stroke="#f2a872" stroke-width="1.51"/><path d="M2032,728L1973,925L2070,942Z" fill="#aa4308" stroke="#aa4308" stroke-width="1.51"/><path d="M1961,1258L1505,1343L2072,1260Z" fill="#8a3005" stroke="#8a3005" stroke-width="1.51"/><path d="M1969,90L2001,231L2101,226Z" fill="#bf8240" stroke="#bf8240" stroke-width="1.51"/><path d="M1881,527L2032,728L2107,485Z" fill="#bc5e14" stroke="#bc5e14" stroke-width="1.51"/><path d="M2001,439L1881,527L2107,485Z" fill="#be681c" stroke="#be681c" stroke-width="1.51"/><path d="M2045,-74L1977,-30L2131,70Z" fill="#bf8a56" stroke="#bf8a56" stroke-width="1.51"/><path d="M1977,-30L1969,90L2131,70Z" fill="#c08951" stroke="#c08951" stroke-width="1.51"/><path d="M1969,90L2101,226L2131,70Z" fill="#bb8448" stroke="#bb8448" stroke-width="1.51"/><path d="M2043,-234L2045,-74L2131,70Z" fill="#bd8d5c" stroke="#bd8d5c" stroke-width="1.51"/><path d="M2078,1118L2072,1260L2133,896Z" fill="#8c3206" stroke="#8c3206" stroke-width="1.51"/><path d="M2107,485L2032,728L2133,896Z" fill="#ae4f0f" stroke="#ae4f0f" stroke-width="1.51"/><path d="M2032,728L2070,942L2133,896Z" fill="#a64209" stroke="#a64209" stroke-width="1.51"/><path d="M2070,942L2078,1118L2133,896Z" fill="#993806" stroke="#993806" stroke-width="1.51"/><path d="M2101,226L2001,231L2134,423Z" fill="#b8772f" stroke="#b8772f" stroke-width="1.51"/><path d="M2001,231L2001,439L2134,423Z" fill="#bb7326" stroke="#bb7326" stroke-width="1.51"/><path d="M2001,439L2107,485L2134,423Z" fill="#b7691f" stroke="#b7691f" stroke-width="1.51"/><path d="M2131,70L2101,226L2134,423Z" fill="#b57a37" stroke="#b57a37" stroke-width="1.51"/><path d="M2107,485L2133,896L2134,423Z" fill="#b05814" stroke="#b05814" stroke-width="1.51"/><path d="M1961,740L1973,925L2032,728Z" fill="#b24a0a" stroke="#b24a0a" stroke-width="1.51"/><path d="M2070,942L1973,925L2078,1118Z" fill="#9d3905" stroke="#9d3905" stroke-width="1.51"/><path d="M1987,1166L2072,1260L2078,1118Z" fill="#862f06" stroke="#862f06" stroke-width="1.51"/><path d="M1881,527L1961,740L2032,728Z" fill="#bc570f" stroke="#bc570f" stroke-width="1.51"/><path d="M2043,-234L1960,-212L2045,-74Z" fill="#c49165" stroke="#c49165" stroke-width="1.51"/><path d="M1973,925L1987,1166L2078,1118Z" fill="#973505" stroke="#973505" stroke-width="1.51"/><path d="M1973,925L1833,1053L1987,1166Z" fill="#a03804" stroke="#a03804" stroke-width="1.51"/><path d="M1987,1166L1961,1258L2072,1260Z" fill="#832e06" stroke="#832e06" stroke-width="1.51"/><path d="M695,1306L553,1342L1160,1314Z" fill="#b66a20" stroke="#b66a20" stroke-width="1.51"/><path d="M1961,740L1873,833L1973,925Z" fill="#b54808" stroke="#b54808" stroke-width="1.51"/><path d="M1960,-212L1977,-30L2045,-74Z" fill="#c5905f" stroke="#c5905f" stroke-width="1.51"/><path d="M1960,-212L1845,-146L1977,-30Z" fill="#cc9362" stroke="#cc9362" stroke-width="1.51"/><path d="M1751,386L2001,439L2001,231Z" fill="#c77827" stroke="#c77827" stroke-width="1.51"/><path d="M1757,269L1751,386L2001,231Z" fill="#cf802f" stroke="#cf802f" stroke-width="1.51"/><path d="M1701,-171L1845,-146L1960,-212Z" fill="#d69867" stroke="#d69867" stroke-width="1.51"/><path d="M1881,527L1762,635L1961,740Z" fill="#c65d11" stroke="#c65d11" stroke-width="1.51"/><path d="M1751,386L1825,494L2001,439Z" fill="#cc711f" stroke="#cc711f" stroke-width="1.51"/><path d="M1825,494L1881,527L2001,439Z" fill="#c76b1b" stroke="#c76b1b" stroke-width="1.51"/><path d="M1969,90L1803,65L2001,231Z" fill="#c98949" stroke="#c98949" stroke-width="1.51"/><path d="M1803,65L1757,269L2001,231Z" fill="#cf8740" stroke="#cf8740" stroke-width="1.51"/><path d="M1803,65L1969,90L1977,-30Z" fill="#cb8d52" stroke="#cb8d52" stroke-width="1.51"/><path d="M1786,1152L1961,1258L1987,1166Z" fill="#903205" stroke="#903205" stroke-width="1.51"/><path d="M1833,1053L1786,1152L1987,1166Z" fill="#9c3604" stroke="#9c3604" stroke-width="1.51"/><path d="M1786,1152L1795,1253L1961,1258Z" fill="#923205" stroke="#923205" stroke-width="1.51"/><path d="M1845,-146L1768,-20L1977,-30Z" fill="#d1945c" stroke="#d1945c" stroke-width="1.51"/><path d="M1768,-20L1803,65L1977,-30Z" fill="#d29256" stroke="#d29256" stroke-width="1.51"/><path d="M1873,833L1833,1053L1973,925Z" fill="#b04004" stroke="#b04004" stroke-width="1.51"/><path d="M1795,809L1873,833L1961,740Z" fill="#bd4d09" stroke="#bd4d09" stroke-width="1.51"/><path d="M1762,635L1795,809L1961,740Z" fill="#c4550c" stroke="#c4550c" stroke-width="1.51"/><path d="M83,1313L41,1315L278,1317Z" fill="#bb8a57" stroke="#bb8a57" stroke-width="1.51"/><path d="M1603,1260L1505,1343L1795,1253Z" fill="#9b3805" stroke="#9b3805" stroke-width="1.51"/><path d="M1795,809L1680,986L1833,1053Z" fill="#ba4403" stroke="#ba4403" stroke-width="1.51"/><path d="M1795,809L1833,1053L1873,833Z" fill="#b84605" stroke="#b84605" stroke-width="1.51"/><path d="M1825,494L1762,635L1881,527Z" fill="#ce6715" stroke="#ce6715" stroke-width="1.51"/><path d="M1628,138L1757,269L1803,65Z" fill="#da8f46" stroke="#da8f46" stroke-width="1.51"/><path d="M1701,-171L1768,-20L1845,-146Z" fill="#db9963" stroke="#db9963" stroke-width="1.51"/><path d="M1762,635L1651,677L1795,809Z" fill="#cf5b0d" stroke="#cf5b0d" stroke-width="1.51"/><path d="M1669,1135L1786,1152L1833,1053Z" fill="#a63a04" stroke="#a63a04" stroke-width="1.51"/><path d="M1680,986L1669,1135L1833,1053Z" fill="#b03f03" stroke="#b03f03" stroke-width="1.51"/><path d="M1751,386L1619,426L1825,494Z" fill="#d77720" stroke="#d77720" stroke-width="1.51"/><path d="M1587,528L1762,635L1825,494Z" fill="#d66b15" stroke="#d66b15" stroke-width="1.51"/><path d="M1619,426L1587,528L1825,494Z" fill="#db741c" stroke="#db741c" stroke-width="1.51"/><path d="M1596,786L1680,986L1795,809Z" fill="#c84e06" stroke="#c84e06" stroke-width="1.51"/><path d="M1786,1152L1669,1135L1795,1253Z" fill="#9f3705" stroke="#9f3705" stroke-width="1.51"/><path d="M1768,-20L1637,-8L1803,65Z" fill="#dc9756" stroke="#dc9756" stroke-width="1.51"/><path d="M1637,-8L1628,138L1803,65Z" fill="#e09652" stroke="#e09652" stroke-width="1.51"/><path d="M1651,677L1596,786L1795,809Z" fill="#d0580a" stroke="#d0580a" stroke-width="1.51"/><path d="M1669,1135L1603,1260L1795,1253Z" fill="#a03904" stroke="#a03904" stroke-width="1.51"/><path d="M1701,-171L1637,-8L1768,-20Z" fill="#e19c5f" stroke="#e19c5f" stroke-width="1.51"/><path d="M1628,138L1600,176L1757,269Z" fill="#e09041" stroke="#e09041" stroke-width="1.51"/><path d="M1619,426L1751,386L1757,269Z" fill="#d98027" stroke="#d98027" stroke-width="1.51"/><path d="M1587,528L1651,677L1762,635Z" fill="#d96712" stroke="#d96712" stroke-width="1.51"/><path d="M1600,176L1619,426L1757,269Z" fill="#df8832" stroke="#df8832" stroke-width="1.51"/><path d="M847,1279L695,1306L1160,1314Z" fill="#b8641a" stroke="#b8641a" stroke-width="1.51"/><path d="M1600,176L1508,396L1619,426Z" fill="#e5892a" stroke="#e5892a" stroke-width="1.51"/><path d="M1533,1052L1669,1135L1680,986Z" fill="#b94303" stroke="#b94303" stroke-width="1.51"/><path d="M1478,-192L1637,-8L1701,-171Z" fill="#eaa266" stroke="#eaa266" stroke-width="1.51"/><path d="M1035,-261L1245,-154L1478,-192Z" fill="#feb778" stroke="#feb778" stroke-width="1.51"/><path d="M1519,782L1533,1052L1596,786Z" fill="#d25405" stroke="#d25405" stroke-width="1.51"/><path d="M1534,182L1508,396L1600,176Z" fill="#e9913a" stroke="#e9913a" stroke-width="1.51"/><path d="M1587,528L1536,671L1651,677Z" fill="#df6911" stroke="#df6911" stroke-width="1.51"/><path d="M1596,786L1533,1052L1680,986Z" fill="#c94b02" stroke="#c94b02" stroke-width="1.51"/><path d="M1498,73L1628,138L1637,-8Z" fill="#e99b53" stroke="#e99b53" stroke-width="1.51"/><path d="M1478,-192L1462,-14L1637,-8Z" fill="#efa562" stroke="#efa562" stroke-width="1.51"/><path d="M1533,1052L1603,1260L1669,1135Z" fill="#b03f03" stroke="#b03f03" stroke-width="1.51"/><path d="M1536,671L1596,786L1651,677Z" fill="#da600d" stroke="#da600d" stroke-width="1.51"/><path d="M1245,-154L1321,-147L1478,-192Z" fill="#fab171" stroke="#fab171" stroke-width="1.51"/><path d="M1533,1052L1418,1141L1603,1260Z" fill="#b54304" stroke="#b54304" stroke-width="1.51"/><path d="M1462,-14L1498,73L1637,-8Z" fill="#eea059" stroke="#eea059" stroke-width="1.51"/><path d="M1534,182L1600,176L1628,138Z" fill="#e79547" stroke="#e79547" stroke-width="1.51"/><path d="M1498,73L1534,182L1628,138Z" fill="#eb994d" stroke="#eb994d" stroke-width="1.51"/><path d="M1519,782L1365,833L1533,1052Z" fill="#d55707" stroke="#d55707" stroke-width="1.51"/><path d="M1536,671L1519,782L1596,786Z" fill="#dc5f0b" stroke="#dc5f0b" stroke-width="1.51"/><path d="M1508,396L1587,528L1619,426Z" fill="#e57d1f" stroke="#e57d1f" stroke-width="1.51"/><path d="M1508,396L1445,495L1587,528Z" fill="#e97d1f" stroke="#e97d1f" stroke-width="1.51"/><path d="M1418,1141L1505,1343L1603,1260Z" fill="#a93f06" stroke="#a93f06" stroke-width="1.51"/><path d="M1445,495L1536,671L1587,528Z" fill="#e67316" stroke="#e67316" stroke-width="1.51"/><path d="M1418,1141L1375,1351L1505,1343Z" fill="#a94208" stroke="#a94208" stroke-width="1.51"/><path d="M1294,681L1365,833L1519,782Z" fill="#e3670f" stroke="#e3670f" stroke-width="1.51"/><path d="M1309,941L1372,1107L1533,1052Z" fill="#ca5006" stroke="#ca5006" stroke-width="1.51"/><path d="M1365,833L1309,941L1533,1052Z" fill="#d55707" stroke="#d55707" stroke-width="1.51"/><path d="M1498,73L1396,83L1534,182Z" fill="#ef9f51" stroke="#ef9f51" stroke-width="1.51"/><path d="M1339,289L1508,396L1534,182Z" fill="#ed9335" stroke="#ed9335" stroke-width="1.51"/><path d="M1445,495L1310,603L1536,671Z" fill="#ea7617" stroke="#ea7617" stroke-width="1.51"/><path d="M1294,681L1519,782L1536,671Z" fill="#e46810" stroke="#e46810" stroke-width="1.51"/><path d="M1310,603L1294,681L1536,671Z" fill="#ea7316" stroke="#ea7316" stroke-width="1.51"/><path d="M1396,83L1339,289L1534,182Z" fill="#f19d48" stroke="#f19d48" stroke-width="1.51"/><path d="M1372,1107L1418,1141L1533,1052Z" fill="#c04a06" stroke="#c04a06" stroke-width="1.51"/><path d="M1321,-147L1462,-14L1478,-192Z" fill="#f5ac6a" stroke="#f5ac6a" stroke-width="1.51"/><path d="M1339,289L1329,385L1508,396Z" fill="#ef912d" stroke="#ef912d" stroke-width="1.51"/><path d="M1329,385L1445,495L1508,396Z" fill="#ed8726" stroke="#ed8726" stroke-width="1.51"/><path d="M1321,-147L1332,-31L1462,-14Z" fill="#f7ae66" stroke="#f7ae66" stroke-width="1.51"/><path d="M1462,-14L1396,83L1498,73Z" fill="#f1a459" stroke="#f1a459" stroke-width="1.51"/><path d="M1332,-31L1396,83L1462,-14Z" fill="#f4a85e" stroke="#f4a85e" stroke-width="1.51"/><path d="M1226,142L1339,289L1396,83Z" fill="#f6a44d" stroke="#f6a44d" stroke-width="1.51"/><path d="M1372,1107L1375,1351L1418,1141Z" fill="#b64908" stroke="#b64908" stroke-width="1.51"/><path d="M1329,385L1310,603L1445,495Z" fill="#f08421" stroke="#f08421" stroke-width="1.51"/><path d="M1233,1080L1160,1314L1372,1107Z" fill="#c1520b" stroke="#c1520b" stroke-width="1.51"/><path d="M1372,1107L1160,1314L1375,1351Z" fill="#b24b0b" stroke="#b24b0b" stroke-width="1.51"/><path d="M1226,142L1235,263L1339,289Z" fill="#f8a245" stroke="#f8a245" stroke-width="1.51"/><path d="M1309,941L1233,1080L1372,1107Z" fill="#ce5609" stroke="#ce5609" stroke-width="1.51"/><path d="M1332,-31L1226,142L1396,83Z" fill="#f8aa5a" stroke="#f8aa5a" stroke-width="1.51"/><path d="M1171,551L1310,603L1329,385Z" fill="#f58721" stroke="#f58721" stroke-width="1.51"/><path d="M1133,796L1309,941L1365,833Z" fill="#e3660f" stroke="#e3660f" stroke-width="1.51"/><path d="M1294,681L1133,796L1365,833Z" fill="#ea6e13" stroke="#ea6e13" stroke-width="1.51"/><path d="M1147,370L1171,551L1329,385Z" fill="#f8932b" stroke="#f8932b" stroke-width="1.51"/><path d="M1321,-147L1221,-95L1332,-31Z" fill="#fbb36b" stroke="#fbb36b" stroke-width="1.51"/><path d="M1221,-95L1226,142L1332,-31Z" fill="#fbb162" stroke="#fbb162" stroke-width="1.51"/><path d="M1235,263L1329,385L1339,289Z" fill="#f59a36" stroke="#f59a36" stroke-width="1.51"/><path d="M1245,-154L1221,-95L1321,-147Z" fill="#fdb571" stroke="#fdb571" stroke-width="1.51"/><path d="M1235,263L1147,370L1329,385Z" fill="#f79c33" stroke="#f79c33" stroke-width="1.51"/><path d="M1133,796L1121,940L1309,941Z" fill="#e36910" stroke="#e36910" stroke-width="1.51"/><path d="M1196,654L1133,796L1294,681Z" fill="#ef7718" stroke="#ef7718" stroke-width="1.51"/><path d="M1086,1130L1160,1314L1233,1080Z" fill="#c3580e" stroke="#c3580e" stroke-width="1.51"/><path d="M1121,940L1233,1080L1309,941Z" fill="#d85f0d" stroke="#d85f0d" stroke-width="1.51"/><path d="M1196,654L1294,681L1310,603Z" fill="#f07a19" stroke="#f07a19" stroke-width="1.51"/><path d="M1171,551L1196,654L1310,603Z" fill="#f4811d" stroke="#f4811d" stroke-width="1.51"/><path d="M1001,-54L1042,92L1221,-95Z" fill="#ffbd6b" stroke="#ffbd6b" stroke-width="1.51"/><path d="M1221,-95L1042,92L1226,142Z" fill="#fdb561" stroke="#fdb561" stroke-width="1.51"/><path d="M1226,142L1042,92L1235,263Z" fill="#fcae52" stroke="#fcae52" stroke-width="1.51"/><path d="M1035,-261L1221,-95L1245,-154Z" fill="#ffbc77" stroke="#ffbc77" stroke-width="1.51"/><path d="M1121,940L1086,1130L1233,1080Z" fill="#d3600f" stroke="#d3600f" stroke-width="1.51"/><path d="M982,283L1147,370L1235,263Z" fill="#fba63d" stroke="#fba63d" stroke-width="1.51"/><path d="M1042,92L982,283L1235,263Z" fill="#fdb04e" stroke="#fdb04e" stroke-width="1.51"/><path d="M1035,-261L1001,-54L1221,-95Z" fill="#ffc177" stroke="#ffc177" stroke-width="1.51"/><path d="M1086,1130L1022,1226L1160,1314Z" fill="#be5b11" stroke="#be5b11" stroke-width="1.51"/><path d="M1147,370L986,475L1171,551Z" fill="#fb982b" stroke="#fb982b" stroke-width="1.51"/><path d="M1171,551L1024,745L1196,654Z" fill="#f4821e" stroke="#f4821e" stroke-width="1.51"/><path d="M1024,745L1133,796L1196,654Z" fill="#f17c1a" stroke="#f17c1a" stroke-width="1.51"/><path d="M1008,975L1086,1130L1121,940Z" fill="#d96812" stroke="#d96812" stroke-width="1.51"/><path d="M1022,1226L847,1279L1160,1314Z" fill="#ba5e15" stroke="#ba5e15" stroke-width="1.51"/><path d="M986,475L1024,745L1171,551Z" fill="#f98e23" stroke="#f98e23" stroke-width="1.51"/><path d="M1026,780L1121,940L1133,796Z" fill="#ea7416" stroke="#ea7416" stroke-width="1.51"/><path d="M976,440L986,475L1147,370Z" fill="#fda031" stroke="#fda031" stroke-width="1.51"/><path d="M982,283L976,440L1147,370Z" fill="#fda738" stroke="#fda738" stroke-width="1.51"/><path d="M938,229L982,283L1042,92Z" fill="#ffb752" stroke="#ffb752" stroke-width="1.51"/><path d="M1026,780L1008,975L1121,940Z" fill="#e77215" stroke="#e77215" stroke-width="1.51"/><path d="M1024,745L1026,780L1133,796Z" fill="#f07b1a" stroke="#f07b1a" stroke-width="1.51"/><path d="M986,475L893,707L1024,745Z" fill="#fa8f24" stroke="#fa8f24" stroke-width="1.51"/><path d="M944,477L893,707L986,475Z" fill="#fe992a" stroke="#fe992a" stroke-width="1.51"/><path d="M873,-165L1001,-54L1035,-261Z" fill="#ffc97d" stroke="#ffc97d" stroke-width="1.51"/><path d="M913,1027L1022,1226L1086,1130Z" fill="#ce6514" stroke="#ce6514" stroke-width="1.51"/><path d="M1008,975L913,1027L1086,1130Z" fill="#d86a14" stroke="#d86a14" stroke-width="1.51"/><path d="M886,345L976,440L982,283Z" fill="#fead3b" stroke="#fead3b" stroke-width="1.51"/><path d="M913,1027L872,1203L1022,1226Z" fill="#cc6917" stroke="#cc6917" stroke-width="1.51"/><path d="M855,851L1008,975L1026,780Z" fill="#ec7a1a" stroke="#ec7a1a" stroke-width="1.51"/><path d="M684,-232L873,-165L1035,-261Z" fill="#ffd189" stroke="#ffd189" stroke-width="1.51"/><path d="M1001,-54L882,127L1042,92Z" fill="#ffc167" stroke="#ffc167" stroke-width="1.51"/><path d="M882,127L938,229L1042,92Z" fill="#ffbd5c" stroke="#ffbd5c" stroke-width="1.51"/><path d="M456,1320L278,1317L553,1342Z" fill="#b77f41" stroke="#b77f41" stroke-width="1.51"/><path d="M873,-165L857,-116L1001,-54Z" fill="#ffcc7c" stroke="#ffcc7c" stroke-width="1.51"/><path d="M872,1203L847,1279L1022,1226Z" fill="#c06619" stroke="#c06619" stroke-width="1.51"/><path d="M1024,745L893,707L1026,780Z" fill="#f5831e" stroke="#f5831e" stroke-width="1.51"/><path d="M893,707L855,851L1026,780Z" fill="#f38420" stroke="#f38420" stroke-width="1.51"/><path d="M857,-116L882,127L1001,-54Z" fill="#ffc971" stroke="#ffc971" stroke-width="1.51"/><path d="M855,851L913,1027L1008,975Z" fill="#e57619" stroke="#e57619" stroke-width="1.51"/><path d="M769,520L893,707L944,477Z" fill="#fe9d2e" stroke="#fe9d2e" stroke-width="1.51"/><path d="M976,440L944,477L986,475Z" fill="#ffa130" stroke="#ffa130" stroke-width="1.51"/><path d="M857,-116L787,-90L882,127Z" fill="#ffce77" stroke="#ffce77" stroke-width="1.51"/><path d="M938,229L886,345L982,283Z" fill="#ffb446" stroke="#ffb446" stroke-width="1.51"/><path d="M886,345L944,477L976,440Z" fill="#ffa836" stroke="#ffa836" stroke-width="1.51"/><path d="M769,520L777,704L893,707Z" fill="#fa9a2e" stroke="#fa9a2e" stroke-width="1.51"/><path d="M855,851L749,990L913,1027Z" fill="#e67d1f" stroke="#e67d1f" stroke-width="1.51"/><path d="M758,1104L872,1203L913,1027Z" fill="#d2711d" stroke="#d2711d" stroke-width="1.51"/><path d="M780,256L886,345L938,229Z" fill="#ffba4c" stroke="#ffba4c" stroke-width="1.51"/><path d="M886,345L769,520L944,477Z" fill="#ffaa38" stroke="#ffaa38" stroke-width="1.51"/><path d="M770,355L769,520L886,345Z" fill="#ffb240" stroke="#ffb240" stroke-width="1.51"/><path d="M882,127L780,256L938,229Z" fill="#ffbf58" stroke="#ffbf58" stroke-width="1.51"/><path d="M793,854L749,990L855,851Z" fill="#ea8424" stroke="#ea8424" stroke-width="1.51"/><path d="M787,-90L704,64L882,127Z" fill="#ffcf73" stroke="#ffcf73" stroke-width="1.51"/><path d="M777,704L855,851L893,707Z" fill="#f68d27" stroke="#f68d27" stroke-width="1.51"/><path d="M749,990L758,1104L913,1027Z" fill="#db7920" stroke="#db7920" stroke-width="1.51"/><path d="M777,704L793,854L855,851Z" fill="#f28b27" stroke="#f28b27" stroke-width="1.51"/><path d="M780,256L770,355L886,345Z" fill="#ffbb48" stroke="#ffbb48" stroke-width="1.51"/><path d="M704,64L780,256L882,127Z" fill="#ffc966" stroke="#ffc966" stroke-width="1.51"/><path d="M787,-90L857,-116L873,-165Z" fill="#ffd281" stroke="#ffd281" stroke-width="1.51"/><path d="M684,-232L787,-90L873,-165Z" fill="#ffd688" stroke="#ffd688" stroke-width="1.51"/><path d="M758,1104L847,1279L872,1203Z" fill="#c76f1f" stroke="#c76f1f" stroke-width="1.51"/><path d="M758,1104L695,1306L847,1279Z" fill="#c27123" stroke="#c27123" stroke-width="1.51"/><path d="M615,1203L695,1306L758,1104Z" fill="#c67827" stroke="#c67827" stroke-width="1.51"/><path d="M560,507L523,623L769,520Z" fill="#feb041" stroke="#feb041" stroke-width="1.51"/><path d="M598,361L769,520L770,355Z" fill="#ffb945" stroke="#ffb945" stroke-width="1.51"/><path d="M769,520L523,623L777,704Z" fill="#fca537" stroke="#fca537" stroke-width="1.51"/><path d="M704,64L584,146L780,256Z" fill="#ffcf6a" stroke="#ffcf6a" stroke-width="1.51"/><path d="M777,704L554,803L793,854Z" fill="#f3942e" stroke="#f3942e" stroke-width="1.51"/><path d="M554,803L749,990L793,854Z" fill="#ec8d2b" stroke="#ec8d2b" stroke-width="1.51"/><path d="M598,361L770,355L780,256Z" fill="#fec14d" stroke="#fec14d" stroke-width="1.51"/><path d="M563,-114L704,64L787,-90Z" fill="#ffda82" stroke="#ffda82" stroke-width="1.51"/><path d="M684,-232L563,-114L787,-90Z" fill="#ffdd8c" stroke="#ffdd8c" stroke-width="1.51"/><path d="M749,990L651,1049L758,1104Z" fill="#da7f26" stroke="#da7f26" stroke-width="1.51"/><path d="M598,361L560,507L769,520Z" fill="#ffb846" stroke="#ffb846" stroke-width="1.51"/><path d="M547,226L598,361L780,256Z" fill="#ffc95a" stroke="#ffc95a" stroke-width="1.51"/><path d="M584,146L547,226L780,256Z" fill="#ffce66" stroke="#ffce66" stroke-width="1.51"/><path d="M523,623L554,803L777,704Z" fill="#f8a03a" stroke="#f8a03a" stroke-width="1.51"/><path d="M392,-213L549,-175L684,-232Z" fill="#ffe6a0" stroke="#ffe6a0" stroke-width="1.51"/><path d="M554,803L651,1049L749,990Z" fill="#e88b2c" stroke="#e88b2c" stroke-width="1.51"/><path d="M651,1049L615,1203L758,1104Z" fill="#d27e28" stroke="#d27e28" stroke-width="1.51"/><path d="M554,803L494,1010L651,1049Z" fill="#e88f36" stroke="#e88f36" stroke-width="1.51"/><path d="M549,-175L563,-114L684,-232Z" fill="#ffe297" stroke="#ffe297" stroke-width="1.51"/><path d="M563,-114L584,146L704,64Z" fill="#ffda80" stroke="#ffda80" stroke-width="1.51"/><path d="M615,1203L553,1342L695,1306Z" fill="#bc782d" stroke="#bc782d" stroke-width="1.51"/><path d="M563,-114L451,-74L584,146Z" fill="#ffe18d" stroke="#ffe18d" stroke-width="1.51"/><path d="M494,1010L615,1203L651,1049Z" fill="#d68532" stroke="#d68532" stroke-width="1.51"/><path d="M101,-239L252,-195L392,-213Z" fill="#fff3bc" stroke="#fff3bc" stroke-width="1.51"/><path d="M451,-74L369,135L584,146Z" fill="#ffe08c" stroke="#ffe08c" stroke-width="1.51"/><path d="M494,1010L389,1191L615,1203Z" fill="#d1863b" stroke="#d1863b" stroke-width="1.51"/><path d="M456,1320L553,1342L615,1203Z" fill="#bc7b36" stroke="#bc7b36" stroke-width="1.51"/><path d="M389,1191L456,1320L615,1203Z" fill="#c3813c" stroke="#c3813c" stroke-width="1.51"/><path d="M369,135L438,192L584,146Z" fill="#ffdb82" stroke="#ffdb82" stroke-width="1.51"/><path d="M547,226L387,454L598,361Z" fill="#ffca5f" stroke="#ffca5f" stroke-width="1.51"/><path d="M387,454L411,476L598,361Z" fill="#ffc45d" stroke="#ffc45d" stroke-width="1.51"/><path d="M411,476L560,507L598,361Z" fill="#ffbf55" stroke="#ffbf55" stroke-width="1.51"/><path d="M438,192L387,454L547,226Z" fill="#ffd16d" stroke="#ffd16d" stroke-width="1.51"/><path d="M523,623L383,789L554,803Z" fill="#f9a548" stroke="#f9a548" stroke-width="1.51"/><path d="M383,789L494,1010L554,803Z" fill="#ef9a44" stroke="#ef9a44" stroke-width="1.51"/><path d="M438,192L547,226L584,146Z" fill="#ffd676" stroke="#ffd676" stroke-width="1.51"/><path d="M387,628L383,789L523,623Z" fill="#fcad51" stroke="#fcad51" stroke-width="1.51"/><path d="M411,476L523,623L560,507Z" fill="#ffb850" stroke="#ffb850" stroke-width="1.51"/><path d="M549,-175L451,-74L563,-114Z" fill="#ffe599" stroke="#ffe599" stroke-width="1.51"/><path d="M351,1145L389,1191L494,1010Z" fill="#d58c45" stroke="#d58c45" stroke-width="1.51"/><path d="M392,-213L451,-74L549,-175Z" fill="#ffe9a3" stroke="#ffe9a3" stroke-width="1.51"/><path d="M336,102L369,135L451,-74Z" fill="#ffe596" stroke="#ffe596" stroke-width="1.51"/><path d="M383,789L294,1026L494,1010Z" fill="#eb994b" stroke="#eb994b" stroke-width="1.51"/><path d="M411,476L387,628L523,623Z" fill="#ffb755" stroke="#ffb755" stroke-width="1.51"/><path d="M323,444L387,454L438,192Z" fill="#ffcf6c" stroke="#ffcf6c" stroke-width="1.51"/><path d="M298,-37L336,102L451,-74Z" fill="#ffe99f" stroke="#ffe99f" stroke-width="1.51"/><path d="M294,1026L351,1145L494,1010Z" fill="#dc9149" stroke="#dc9149" stroke-width="1.51"/><path d="M278,816L294,1026L383,789Z" fill="#f0a153" stroke="#f0a153" stroke-width="1.51"/><path d="M329,665L383,789L387,628Z" fill="#fbaf57" stroke="#fbaf57" stroke-width="1.51"/><path d="M323,590L387,628L411,476Z" fill="#ffbb5d" stroke="#ffbb5d" stroke-width="1.51"/><path d="M233,201L323,444L438,192Z" fill="#ffd87b" stroke="#ffd87b" stroke-width="1.51"/><path d="M392,-213L298,-37L451,-74Z" fill="#ffeca8" stroke="#ffeca8" stroke-width="1.51"/><path d="M389,1191L278,1317L456,1320Z" fill="#bf8447" stroke="#bf8447" stroke-width="1.51"/><path d="M369,135L233,201L438,192Z" fill="#ffe08b" stroke="#ffe08b" stroke-width="1.51"/><path d="M-225,-163L-33,-185L101,-239Z" fill="#fffbcf" stroke="#fffbcf" stroke-width="1.51"/><path d="M323,444L323,590L387,454Z" fill="#ffc364" stroke="#ffc364" stroke-width="1.51"/><path d="M252,-195L298,-37L392,-213Z" fill="#fff0b1" stroke="#fff0b1" stroke-width="1.51"/><path d="M387,454L323,590L411,476Z" fill="#ffc161" stroke="#ffc161" stroke-width="1.51"/><path d="M278,816L195,953L294,1026Z" fill="#ed9f55" stroke="#ed9f55" stroke-width="1.51"/><path d="M329,665L278,816L383,789Z" fill="#f9ab57" stroke="#f9ab57" stroke-width="1.51"/><path d="M351,1145L278,1317L389,1191Z" fill="#c7894a" stroke="#c7894a" stroke-width="1.51"/><path d="M323,590L329,665L387,628Z" fill="#feb75c" stroke="#feb75c" stroke-width="1.51"/><path d="M233,201L117,261L323,444Z" fill="#ffda80" stroke="#ffda80" stroke-width="1.51"/><path d="M336,102L233,201L369,135Z" fill="#fee392" stroke="#fee392" stroke-width="1.51"/><path d="M252,-195L186,-116L298,-37Z" fill="#fff1b2" stroke="#fff1b2" stroke-width="1.51"/><path d="M117,261L91,407L323,444Z" fill="#ffd57b" stroke="#ffd57b" stroke-width="1.51"/><path d="M323,444L155,503L323,590Z" fill="#ffc468" stroke="#ffc468" stroke-width="1.51"/><path d="M294,1026L100,1081L351,1145Z" fill="#da9453" stroke="#da9453" stroke-width="1.51"/><path d="M100,1081L278,1317L351,1145Z" fill="#cd8e51" stroke="#cd8e51" stroke-width="1.51"/><path d="M81,686L278,816L329,665Z" fill="#fcb160" stroke="#fcb160" stroke-width="1.51"/><path d="M298,-37L151,70L336,102Z" fill="#ffeaa1" stroke="#ffeaa1" stroke-width="1.51"/><path d="M151,70L233,201L336,102Z" fill="#ffe79a" stroke="#ffe79a" stroke-width="1.51"/><path d="M100,1081L83,1313L278,1317Z" fill="#c68e57" stroke="#c68e57" stroke-width="1.51"/><path d="M91,407L155,503L323,444Z" fill="#ffcd73" stroke="#ffcd73" stroke-width="1.51"/><path d="M323,590L81,686L329,665Z" fill="#feb863" stroke="#feb863" stroke-width="1.51"/><path d="M155,503L81,686L323,590Z" fill="#ffbf6a" stroke="#ffbf6a" stroke-width="1.51"/><path d="M186,-116L151,70L298,-37Z" fill="#ffefab" stroke="#ffefab" stroke-width="1.51"/><path d="M129,874L195,953L278,816Z" fill="#f1a55c" stroke="#f1a55c" stroke-width="1.51"/><path d="M195,953L100,1081L294,1026Z" fill="#e39a57" stroke="#e39a57" stroke-width="1.51"/><path d="M81,686L129,874L278,816Z" fill="#f8ad62" stroke="#f8ad62" stroke-width="1.51"/><path d="M101,-239L186,-116L252,-195Z" fill="#fff5be" stroke="#fff5be" stroke-width="1.51"/><path d="M151,70L117,261L233,201Z" fill="#ffe598" stroke="#ffe598" stroke-width="1.51"/><path d="M40,1104L83,1313L100,1081Z" fill="#d1945d" stroke="#d1945d" stroke-width="1.51"/><path d="M-7,576L81,686L155,503Z" fill="#ffc372" stroke="#ffc372" stroke-width="1.51"/><path d="M34,5L151,70L186,-116Z" fill="#fff2b1" stroke="#fff2b1" stroke-width="1.51"/><path d="M129,874L20,1015L195,953Z" fill="#eda25e" stroke="#eda25e" stroke-width="1.51"/><path d="M20,1015L100,1081L195,953Z" fill="#e59d5e" stroke="#e59d5e" stroke-width="1.51"/><path d="M101,-239L-33,-185L186,-116Z" fill="#fff8c4" stroke="#fff8c4" stroke-width="1.51"/><path d="M-33,-185L34,5L186,-116Z" fill="#fff7be" stroke="#fff7be" stroke-width="1.51"/><path d="M40,1104L41,1315L83,1313Z" fill="#c6905d" stroke="#c6905d" stroke-width="1.51"/><path d="M-51,44L117,261L151,70Z" fill="#ffeca6" stroke="#ffeca6" stroke-width="1.51"/><path d="M34,5L-51,44L151,70Z" fill="#fff1b0" stroke="#fff1b0" stroke-width="1.51"/><path d="M91,407L-7,576L155,503Z" fill="#ffcd78" stroke="#ffcd78" stroke-width="1.51"/><path d="M81,686L-75,715L129,874Z" fill="#fcb36c" stroke="#fcb36c" stroke-width="1.51"/><path d="M-51,44L-77,290L117,261Z" fill="#ffe8a0" stroke="#ffe8a0" stroke-width="1.51"/><path d="M-77,290L91,407L117,261Z" fill="#ffde8a" stroke="#ffde8a" stroke-width="1.51"/><path d="M-67,904L20,1015L129,874Z" fill="#efa565" stroke="#efa565" stroke-width="1.51"/><path d="M-75,715L-67,904L129,874Z" fill="#f7ae6c" stroke="#f7ae6c" stroke-width="1.51"/><path d="M-82,408L-7,576L91,407Z" fill="#ffd180" stroke="#ffd180" stroke-width="1.51"/><path d="M-77,290L-82,408L91,407Z" fill="#ffdb89" stroke="#ffdb89" stroke-width="1.51"/><path d="M20,1015L40,1104L100,1081Z" fill="#de9b60" stroke="#de9b60" stroke-width="1.51"/><path d="M40,1104L-113,1314L41,1315Z" fill="#c69162" stroke="#c69162" stroke-width="1.51"/><path d="M-7,576L-75,715L81,686Z" fill="#ffbe73" stroke="#ffbe73" stroke-width="1.51"/><path d="M-33,-185L-51,44L34,5Z" fill="#fff6be" stroke="#fff6be" stroke-width="1.51"/><path d="M-215,1153L-113,1314L40,1104Z" fill="#cf9567" stroke="#cf9567" stroke-width="1.51"/><path d="M20,1015L-215,1153L40,1104Z" fill="#dc9b67" stroke="#dc9b67" stroke-width="1.51"/><path d="M-191,-1L-51,44L-33,-185Z" fill="#fff7c3" stroke="#fff7c3" stroke-width="1.51"/><path d="M-200,64L-77,290L-51,44Z" fill="#ffeeb1" stroke="#ffeeb1" stroke-width="1.51"/><path d="M-82,408L-110,420L-7,576Z" fill="#ffd184" stroke="#ffd184" stroke-width="1.51"/><path d="M-118,605L-75,715L-7,576Z" fill="#ffc179" stroke="#ffc179" stroke-width="1.51"/><path d="M-67,904L-221,988L20,1015Z" fill="#eda46c" stroke="#eda46c" stroke-width="1.51"/><path d="M-221,988L-215,1153L20,1015Z" fill="#e29e6d" stroke="#e29e6d" stroke-width="1.51"/><path d="M-200,64L-206,256L-77,290Z" fill="#ffeaaa" stroke="#ffeaaa" stroke-width="1.51"/><path d="M-225,-163L-191,-1L-33,-185Z" fill="#ffface" stroke="#ffface" stroke-width="1.51"/><path d="M-110,420L-118,605L-7,576Z" fill="#ffca7f" stroke="#ffca7f" stroke-width="1.51"/><path d="M-75,715L-225,868L-67,904Z" fill="#f8b074" stroke="#f8b074" stroke-width="1.51"/><path d="M-110,420L-82,408L-77,290Z" fill="#ffdb8d" stroke="#ffdb8d" stroke-width="1.51"/><path d="M-191,-1L-200,64L-51,44Z" fill="#fff4be" stroke="#fff4be" stroke-width="1.51"/><path d="M-206,256L-110,420L-77,290Z" fill="#ffe196" stroke="#ffe196" stroke-width="1.51"/><path d="M-118,605L-204,650L-75,715Z" fill="#ffbf7c" stroke="#ffbf7c" stroke-width="1.51"/><path d="M-204,650L-225,868L-75,715Z" fill="#ffb77a" stroke="#ffb77a" stroke-width="1.51"/><path d="M-225,868L-221,988L-67,904Z" fill="#f2a973" stroke="#f2a973" stroke-width="1.51"/><path d="M-204,650L-118,605L-110,420Z" fill="#ffc882" stroke="#ffc882" stroke-width="1.51"/><path d="M-206,256L-204,650L-110,420Z" fill="#ffd58e" stroke="#ffd58e" stroke-width="1.51"/><path d="M-225,-163L-200,64L-191,-1Z" fill="#fff8ca" stroke="#fff8ca" stroke-width="1.51"/><path d="M-206,256L-225,868L-204,650Z" fill="#ffc685" stroke="#ffc685" stroke-width="1.51"/><path d="M-225,-163L-206,256L-200,64Z" fill="#fff4c1" stroke="#fff4c1" stroke-width="1.51"/><path d="M-225,-163L-225,868L-206,256Z" fill="#ffe29c" stroke="#ffe29c" stroke-width="1.51"/></svg>