<?xml version="1.0" encoding="UTF-8" standalone="no"?>
<svg
   xmlns:dc="http://purl.org/dc/elements/1.1/"
   xmlns:cc="http://creativecommons.org/ns#"
   xmlns:rdf="http://www.w3.org/1999/02/22-rdf-syntax-ns#"
   xmlns:svg="http://www.w3.org/2000/svg"
   xmlns="http://www.w3.org/2000/svg"
   xmlns:xlink="http://www.w3.org/1999/xlink"
   version="1.1"
   id="svg2"
   viewBox="0 0 1920.0001 1080"
   height="1080"
   width="1920">
  <defs
     id="defs4">
    <clipPath
       id="c">
      <path
         d="M0,0V1.5H7V3H6zM6,0H3V3.5H0V3z"
         id="path3488" />
    </clipPath>
    <path
       id="Star7"
       d="M0,-360 69.421398,-144.155019 281.459334,-224.456329 155.988466,-35.603349 350.974048,80.107536 125.093037,99.758368 156.198146,324.348792 0,160 -156.198146,324.348792 -125.093037,99.758368 -350.974048,80.107536 -155.988466,-35.603349 -281.459334,-224.456329 -69.421398,-144.155019z" />
    <path
       id="Star5"
       d="M0,-210 54.859957,-75.508253 199.721868,-64.893569 88.765275,28.841586 123.434903,169.893569 0,93.333333 -123.434903,169.893569 -88.765275,28.841586 -199.721868,-64.893569 -54.859957,-75.508253z" />
    <use
       id="Cstar"
       xlink:href="#Star7"
       transform="scale(2.1)" />
  </defs>
  <metadata
     id="metadata7">
    <rdf:RDF>
      <cc:Work
         rdf:about="">
        <dc:format>image/svg+xml</dc:format>
        <dc:type
           rdf:resource="http://purl.org/dc/dcmitype/StillImage" />
        <dc:title></dc:title>
      </cc:Work>
    </rdf:RDF>
  </metadata>
  <g
     transform="translate(0,27.637408)"
     id="layer1">
    <g
       transform="matrix(0.0892975,0,0,0.10596406,1023.5439,-21.573727)"
       id="g3524">
      <g
         transform="scale(840,840)"
         id="g3493">
        <rect
           style="fill:#002776"
           y="0"
           x="0"
           width="12"
           height="6"
           id="rect3495" />
        <path
           style="stroke:#ffffff;stroke-width:0.60000002"
           d="M 0,0 6,3 M 6,0 0,3"
           id="path3497" />
        <path
           style="stroke:#e00034;stroke-width:0.40000001"
           d="M 0,0 6,3 M 6,0 0,3"
           clip-path="url(#c)"
           id="path3499" />
        <path
           style="stroke:#ffffff"
           d="m 3,0 0,3.5 m -3,-2 7,0"
           id="path3501" />
        <path
           style="stroke:#e00034;stroke-width:0.60000002"
           d="m 3,0 0,3.5 m -3,-2 7,0"
           id="path3503" />
        <path
           style="fill:#002776"
           d="M 0,3 6,3 6,0 8,0 8,4 0,4 Z"
           id="path3505" />
      </g>
      <g
         style="fill:#ffffff"
         id="g3507">
        <use
           height="100%"
           width="100%"
           id="Comwlth"
           xlink:href="#Cstar"
           x="2520"
           y="3780" />
        <use
           height="100%"
           width="100%"
           id="αCrucis"
           xlink:href="#Star7"
           x="7560"
           y="4200" />
        <use
           height="100%"
           width="100%"
           id="βCrucis"
           xlink:href="#Star7"
           x="6300"
           y="2205" />
        <use
           height="100%"
           width="100%"
           id="γCrucis"
           xlink:href="#Star7"
           x="7560"
           y="840" />
        <use
           height="100%"
           width="100%"
           id="δCrucis"
           xlink:href="#Star7"
           x="8680"
           y="1869" />
        <use
           height="100%"
           width="100%"
           id="εCrucis"
           xlink:href="#Star5"
           x="8064"
           y="2730" />
      </g>
    </g>
    <g
       transform="matrix(1.0285715,0,0,1.0800001,0,512.3626)"
       id="g3554">
      <rect
         style="fill:#ff0000"
         y="0"
         x="0"
         width="1000"
         height="500"
         id="rect3542" />
      <rect
         style="fill:#ffffff"
         y="0"
         width="500"
         height="500"
         x="250"
         id="rect3544" />
      <path
         style="fill:#ff0000"
         d="m 499.99228,46.875 -34.11312,63.62529 c -3.87086,6.91501 -10.80627,6.27363 -17.74169,2.41138 l -24.69699,-12.78858 18.40705,97.72711 c 3.87086,17.85419 -8.54859,17.85419 -14.67765,10.13435 l -43.10105,-48.25099 -6.99738,24.503 c -0.80692,3.21777 -4.35481,6.59744 -9.67748,5.79261 l -54.50177,-11.45912 14.31524,52.04475 c 3.06451,11.58054 5.4549,16.37528 -3.09375,19.42959 l -19.42619,9.13025 93.82127,76.20838 c 3.7135,2.88151 5.58971,8.067 4.26768,12.7621 l -8.21136,26.94707 c 32.30405,-3.72371 61.24898,-9.32594 93.56939,-12.77619 2.85323,-0.30459 7.62988,4.40408 7.61029,7.71058 l -4.28024,98.72342 15.70639,0 -2.47237,-98.5117 c -0.0197,-3.3065 4.31372,-8.22689 7.16695,-7.9223 32.32041,3.45026 61.26538,9.05248 93.56942,12.77619 l -8.21134,-26.94707 c -1.32203,-4.6951 0.55417,-9.88059 4.26767,-12.7621 l 93.82125,-76.20838 -19.42617,-9.13025 c -8.54867,-3.05431 -6.15828,-7.84905 -3.09377,-19.42959 l 14.31527,-52.04475 -54.5018,11.45912 c -5.32267,0.80483 -8.87056,-2.57484 -9.6775,-5.79261 l -6.99737,-24.503 -43.10103,48.25099 c -6.12908,7.71984 -18.54854,7.71984 -14.67768,-10.13435 l 18.40702,-97.72711 -24.69694,12.78858 c -6.93559,3.86225 -13.87083,4.50363 -17.7417,-2.41138"
         id="path3546" />
    </g>
    <g
       transform="matrix(0.13807597,0,0,0.13846155,0,-27.63745)"
       id="g3614">
      <rect
         style="fill:#b22234"
         y="0"
         x="0"
         width="7410"
         height="3900"
         id="rect3577" />
      <path
         style="stroke:#ffffff;stroke-width:300"
         d="m 0,450 7410,0 m 0,600 -7410,0 m 0,600 7410,0 m 0,600 -7410,0 m 0,600 7410,0 m 0,600 -7410,0"
         id="path3579" />
      <rect
         style="fill:#3c3b6e"
         y="0"
         x="0"
         width="2964"
         height="2100"
         id="rect3581" />
      <g
         style="fill:#ffffff"
         id="g3583">
        <g
           id="s18">
          <g
             id="s9">
            <g
               id="s5">
              <g
                 id="s4">
                <path
                   id="s"
                   d="m 247,90 70.53423,217.08204 -184.66101,-134.16408 228.25356,0 -184.66101,134.16408 z" />
                <use
                   height="100%"
                   width="100%"
                   x="0"
                   xlink:href="#s"
                   y="420"
                   id="use3590" />
                <use
                   height="100%"
                   width="100%"
                   x="0"
                   xlink:href="#s"
                   y="840"
                   id="use3592" />
                <use
                   height="100%"
                   width="100%"
                   x="0"
                   xlink:href="#s"
                   y="1260"
                   id="use3594" />
              </g>
              <use
                 height="100%"
                 width="100%"
                 x="0"
                 xlink:href="#s"
                 y="1680"
                 id="use3596" />
            </g>
            <use
               height="100%"
               width="100%"
               xlink:href="#s4"
               x="247"
               y="210"
               id="use3598" />
          </g>
          <use
             height="100%"
             width="100%"
             y="0"
             xlink:href="#s9"
             x="494"
             id="use3600" />
        </g>
        <use
           height="100%"
           width="100%"
           y="0"
           xlink:href="#s18"
           x="988"
           id="use3602" />
        <use
           height="100%"
           width="100%"
           y="0"
           xlink:href="#s9"
           x="1976"
           id="use3604" />
        <use
           height="100%"
           width="100%"
           y="0"
           xlink:href="#s5"
           x="2470"
           id="use3606" />
      </g>
    </g>
    <g
       transform="matrix(33.333335,0,0,30.158733,1025.7144,512.3626)"
       id="g3899">
      <rect
         style="fill:#0d5eaf"
         y="0"
         x="0"
         width="27"
         height="18"
         id="rect3889" />
      <path
         style="fill:none;stroke:#ffffff;stroke-width:2"
         d="M 5,0 5,11 M 0,5 10,5 M 10,3 27,3 M 10,7 27,7 m -27,4 27,0 m -27,4 27,0"
         id="path3891" />
    </g>
  </g>
</svg>
